<mxfile host="app.diagrams.net" agent="Mozilla/5.0 (Windows NT 10.0; Win64; x64) AppleWebKit/537.36 (KHTML, like Gecko) Chrome/137.0.0.0 Safari/537.36" version="27.1.6">
  <diagram name="Page-1" id="EaG-4htFvMHqy0F6q6ag">
    <mxGraphModel dx="786" dy="451" grid="1" gridSize="10" guides="1" tooltips="1" connect="1" arrows="1" fold="1" page="1" pageScale="1" pageWidth="850" pageHeight="1100" background="#ffffff" math="0" shadow="0">
      <root>
        <mxCell id="0" />
        <mxCell id="1" parent="0" />
        <mxCell id="0HfxqaFUXbfq7kOoOIhr-2" value="VPC" style="points=[[0,0],[0.25,0],[0.5,0],[0.75,0],[1,0],[1,0.25],[1,0.5],[1,0.75],[1,1],[0.75,1],[0.5,1],[0.25,1],[0,1],[0,0.75],[0,0.5],[0,0.25]];outlineConnect=0;gradientColor=none;html=1;whiteSpace=wrap;fontSize=12;fontStyle=0;container=1;pointerEvents=0;collapsible=0;recursiveResize=0;shape=mxgraph.aws4.group;grIcon=mxgraph.aws4.group_vpc2;strokeColor=#8C4FFF;fillColor=none;verticalAlign=top;align=left;spacingLeft=30;fontColor=#AAB7B8;dashed=0;" parent="1" vertex="1">
          <mxGeometry x="140" y="80" width="590" height="460" as="geometry" />
        </mxCell>
        <mxCell id="0HfxqaFUXbfq7kOoOIhr-5" value="Private subnet" style="points=[[0,0],[0.25,0],[0.5,0],[0.75,0],[1,0],[1,0.25],[1,0.5],[1,0.75],[1,1],[0.75,1],[0.5,1],[0.25,1],[0,1],[0,0.75],[0,0.5],[0,0.25]];outlineConnect=0;html=1;whiteSpace=wrap;fontSize=12;fontStyle=0;container=1;pointerEvents=0;collapsible=0;recursiveResize=0;shape=mxgraph.aws4.group;grIcon=mxgraph.aws4.group_security_group;grStroke=0;strokeColor=#82b366;fillColor=#d5e8d4;verticalAlign=top;align=left;spacingLeft=30;dashed=0;" parent="0HfxqaFUXbfq7kOoOIhr-2" vertex="1">
          <mxGeometry x="260" y="40" width="120" height="420" as="geometry" />
        </mxCell>
        <mxCell id="0HfxqaFUXbfq7kOoOIhr-3" value="Public subnet" style="points=[[0,0],[0.25,0],[0.5,0],[0.75,0],[1,0],[1,0.25],[1,0.5],[1,0.75],[1,1],[0.75,1],[0.5,1],[0.25,1],[0,1],[0,0.75],[0,0.5],[0,0.25]];outlineConnect=0;html=1;whiteSpace=wrap;fontSize=12;fontStyle=0;container=1;pointerEvents=0;collapsible=0;recursiveResize=0;shape=mxgraph.aws4.group;grIcon=mxgraph.aws4.group_security_group;grStroke=0;strokeColor=#b85450;fillColor=#f8cecc;verticalAlign=top;align=left;spacingLeft=30;dashed=0;" parent="0HfxqaFUXbfq7kOoOIhr-2" vertex="1">
          <mxGeometry x="60" y="40" width="150" height="420" as="geometry" />
        </mxCell>
        <mxCell id="0HfxqaFUXbfq7kOoOIhr-9" value="Availability Zone us-east-1b" style="fillColor=none;strokeColor=#147EBA;dashed=1;verticalAlign=top;fontStyle=0;fontColor=#147EBA;whiteSpace=wrap;html=1;dashPattern=8 8;" parent="0HfxqaFUXbfq7kOoOIhr-3" vertex="1">
          <mxGeometry y="230" width="510" height="190" as="geometry" />
        </mxCell>
        <mxCell id="0HfxqaFUXbfq7kOoOIhr-13" value="" style="points=[];aspect=fixed;html=1;align=center;shadow=0;dashed=0;fillColor=#FF6A00;strokeColor=none;shape=mxgraph.alibaba_cloud.bastionhost;" parent="0HfxqaFUXbfq7kOoOIhr-2" vertex="1">
          <mxGeometry x="99.80000000000001" y="80" width="50.4" height="39.900000000000006" as="geometry" />
        </mxCell>
        <mxCell id="0HfxqaFUXbfq7kOoOIhr-14" value="sn-1" style="text;html=1;align=center;verticalAlign=middle;whiteSpace=wrap;rounded=0;" parent="0HfxqaFUXbfq7kOoOIhr-2" vertex="1">
          <mxGeometry x="70" y="230" width="60" height="30" as="geometry" />
        </mxCell>
        <mxCell id="0HfxqaFUXbfq7kOoOIhr-6" value="Private subnet&lt;br&gt;(Database SN)" style="points=[[0,0],[0.25,0],[0.5,0],[0.75,0],[1,0],[1,0.25],[1,0.5],[1,0.75],[1,1],[0.75,1],[0.5,1],[0.25,1],[0,1],[0,0.75],[0,0.5],[0,0.25]];outlineConnect=0;html=1;whiteSpace=wrap;fontSize=12;fontStyle=0;container=1;pointerEvents=0;collapsible=0;recursiveResize=0;shape=mxgraph.aws4.group;grIcon=mxgraph.aws4.group_security_group;grStroke=0;strokeColor=#d6b656;fillColor=#fff2cc;verticalAlign=top;align=left;spacingLeft=30;dashed=0;" parent="0HfxqaFUXbfq7kOoOIhr-2" vertex="1">
          <mxGeometry x="420" y="40" width="140" height="420" as="geometry" />
        </mxCell>
        <mxCell id="0HfxqaFUXbfq7kOoOIhr-16" value="sn-1" style="text;html=1;align=center;verticalAlign=middle;whiteSpace=wrap;rounded=0;" parent="0HfxqaFUXbfq7kOoOIhr-2" vertex="1">
          <mxGeometry x="280" y="240" width="60" height="30" as="geometry" />
        </mxCell>
        <mxCell id="0HfxqaFUXbfq7kOoOIhr-10" value="Availability Zone us-east-1a" style="fillColor=none;strokeColor=#147EBA;verticalAlign=top;fontStyle=0;fontColor=#147EBA;whiteSpace=wrap;html=1;dashed=1;dashPattern=12 12;" parent="0HfxqaFUXbfq7kOoOIhr-2" vertex="1">
          <mxGeometry x="60" y="80" width="510" height="190" as="geometry" />
        </mxCell>
        <mxCell id="PWlyQdyDPkcx513YCzFa-2" value="" style="outlineConnect=0;dashed=0;verticalLabelPosition=bottom;verticalAlign=top;align=center;html=1;shape=mxgraph.aws3.vpn_connection;fillColor=#F58536;gradientColor=none;" vertex="1" parent="0HfxqaFUXbfq7kOoOIhr-2">
          <mxGeometry x="150.20000000000002" y="80" width="58.5" height="48" as="geometry" />
        </mxCell>
        <mxCell id="PWlyQdyDPkcx513YCzFa-6" value="" style="outlineConnect=0;dashed=0;verticalLabelPosition=bottom;verticalAlign=top;align=center;html=1;shape=mxgraph.aws3.application_load_balancer;fillColor=#F58534;gradientColor=none;" vertex="1" parent="0HfxqaFUXbfq7kOoOIhr-2">
          <mxGeometry x="211" y="250" width="49" height="50" as="geometry" />
        </mxCell>
        <mxCell id="PWlyQdyDPkcx513YCzFa-7" value="" style="endArrow=none;dashed=1;html=1;rounded=0;exitX=0.2;exitY=1;exitDx=0;exitDy=0;exitPerimeter=0;" edge="1" parent="0HfxqaFUXbfq7kOoOIhr-2" source="PWlyQdyDPkcx513YCzFa-2" target="PWlyQdyDPkcx513YCzFa-6">
          <mxGeometry width="50" height="50" relative="1" as="geometry">
            <mxPoint x="220" y="260" as="sourcePoint" />
            <mxPoint x="270" y="210" as="targetPoint" />
          </mxGeometry>
        </mxCell>
        <mxCell id="PWlyQdyDPkcx513YCzFa-13" value="Bastion host &amp;amp; VPN" style="text;html=1;align=center;verticalAlign=middle;whiteSpace=wrap;rounded=0;" vertex="1" parent="0HfxqaFUXbfq7kOoOIhr-2">
          <mxGeometry x="120" y="140" width="60" height="30" as="geometry" />
        </mxCell>
        <mxCell id="0HfxqaFUXbfq7kOoOIhr-1" value="AWS Account" style="points=[[0,0],[0.25,0],[0.5,0],[0.75,0],[1,0],[1,0.25],[1,0.5],[1,0.75],[1,1],[0.75,1],[0.5,1],[0.25,1],[0,1],[0,0.75],[0,0.5],[0,0.25]];outlineConnect=0;gradientColor=none;html=1;whiteSpace=wrap;fontSize=12;fontStyle=0;container=1;pointerEvents=0;collapsible=0;recursiveResize=0;shape=mxgraph.aws4.group;grIcon=mxgraph.aws4.group_account;strokeColor=#CD2264;fillColor=none;verticalAlign=top;align=left;spacingLeft=30;fontColor=#CD2264;dashed=0;" parent="1" vertex="1">
          <mxGeometry x="110" y="40" width="630" height="520" as="geometry" />
        </mxCell>
        <mxCell id="0HfxqaFUXbfq7kOoOIhr-20" value="" style="sketch=0;outlineConnect=0;fontColor=#232F3E;gradientColor=none;fillColor=#8C4FFF;strokeColor=none;dashed=0;verticalLabelPosition=bottom;verticalAlign=top;align=center;html=1;fontSize=12;fontStyle=0;aspect=fixed;pointerEvents=1;shape=mxgraph.aws4.internet_gateway;" parent="0HfxqaFUXbfq7kOoOIhr-1" vertex="1">
          <mxGeometry x="2" y="210" width="28" height="28" as="geometry" />
        </mxCell>
        <mxCell id="0HfxqaFUXbfq7kOoOIhr-21" value="" style="outlineConnect=0;dashed=0;verticalLabelPosition=bottom;verticalAlign=top;align=center;html=1;shape=mxgraph.aws3.vpc_nat_gateway;fillColor=#F58534;gradientColor=none;" parent="0HfxqaFUXbfq7kOoOIhr-1" vertex="1">
          <mxGeometry x="2" y="160" width="29" height="30" as="geometry" />
        </mxCell>
        <mxCell id="0HfxqaFUXbfq7kOoOIhr-22" value="IGW" style="text;html=1;align=center;verticalAlign=middle;whiteSpace=wrap;rounded=0;" parent="0HfxqaFUXbfq7kOoOIhr-1" vertex="1">
          <mxGeometry x="-14" y="238" width="60" height="30" as="geometry" />
        </mxCell>
        <mxCell id="0HfxqaFUXbfq7kOoOIhr-23" value="NAT" style="text;html=1;align=center;verticalAlign=middle;whiteSpace=wrap;rounded=0;" parent="0HfxqaFUXbfq7kOoOIhr-1" vertex="1">
          <mxGeometry x="-14" y="130" width="60" height="30" as="geometry" />
        </mxCell>
        <mxCell id="PWlyQdyDPkcx513YCzFa-12" value="" style="points=[];aspect=fixed;html=1;align=center;shadow=0;dashed=0;fillColor=#FF6A00;strokeColor=none;shape=mxgraph.alibaba_cloud.bastionhost;" vertex="1" parent="0HfxqaFUXbfq7kOoOIhr-1">
          <mxGeometry x="130" y="120.1" width="50.4" height="39.900000000000006" as="geometry" />
        </mxCell>
        <mxCell id="0HfxqaFUXbfq7kOoOIhr-15" value="sn-2" style="text;html=1;align=center;verticalAlign=middle;whiteSpace=wrap;rounded=0;" parent="1" vertex="1">
          <mxGeometry x="220" y="490" width="60" height="30" as="geometry" />
        </mxCell>
        <mxCell id="0HfxqaFUXbfq7kOoOIhr-17" value="sn-2" style="text;html=1;align=center;verticalAlign=middle;whiteSpace=wrap;rounded=0;" parent="1" vertex="1">
          <mxGeometry x="425" y="490" width="60" height="30" as="geometry" />
        </mxCell>
        <mxCell id="0HfxqaFUXbfq7kOoOIhr-18" value="sn-1" style="text;html=1;align=center;verticalAlign=middle;whiteSpace=wrap;rounded=0;" parent="1" vertex="1">
          <mxGeometry x="620" y="320" width="60" height="30" as="geometry" />
        </mxCell>
        <mxCell id="0HfxqaFUXbfq7kOoOIhr-19" value="sn-2" style="text;html=1;align=center;verticalAlign=middle;whiteSpace=wrap;rounded=0;" parent="1" vertex="1">
          <mxGeometry x="600" y="490" width="60" height="30" as="geometry" />
        </mxCell>
        <mxCell id="0HfxqaFUXbfq7kOoOIhr-24" value="" style="verticalLabelPosition=bottom;sketch=0;aspect=fixed;html=1;verticalAlign=top;strokeColor=none;align=center;outlineConnect=0;shape=mxgraph.citrix.laptop_2;" parent="1" vertex="1">
          <mxGeometry y="260" width="53.64" height="40" as="geometry" />
        </mxCell>
        <mxCell id="0HfxqaFUXbfq7kOoOIhr-25" value="" style="endArrow=classic;startArrow=classic;html=1;rounded=0;entryX=0.15;entryY=0.133;entryDx=0;entryDy=0;entryPerimeter=0;" parent="1" source="0HfxqaFUXbfq7kOoOIhr-24" target="0HfxqaFUXbfq7kOoOIhr-22" edge="1">
          <mxGeometry width="50" height="50" relative="1" as="geometry">
            <mxPoint x="400" y="430" as="sourcePoint" />
            <mxPoint x="450" y="380" as="targetPoint" />
          </mxGeometry>
        </mxCell>
        <mxCell id="PWlyQdyDPkcx513YCzFa-1" value="" style="sketch=0;points=[[0,0,0],[0.25,0,0],[0.5,0,0],[0.75,0,0],[1,0,0],[0,1,0],[0.25,1,0],[0.5,1,0],[0.75,1,0],[1,1,0],[0,0.25,0],[0,0.5,0],[0,0.75,0],[1,0.25,0],[1,0.5,0],[1,0.75,0]];outlineConnect=0;fontColor=#232F3E;fillColor=#8C4FFF;strokeColor=#ffffff;dashed=0;verticalLabelPosition=bottom;verticalAlign=top;align=center;html=1;fontSize=12;fontStyle=0;aspect=fixed;shape=mxgraph.aws4.resourceIcon;resIcon=mxgraph.aws4.client_vpn;" vertex="1" parent="1">
          <mxGeometry x="60" y="320" width="20" height="20" as="geometry" />
        </mxCell>
        <mxCell id="PWlyQdyDPkcx513YCzFa-3" value="" style="verticalLabelPosition=bottom;sketch=0;aspect=fixed;html=1;verticalAlign=top;strokeColor=none;align=center;outlineConnect=0;shape=mxgraph.citrix.laptop_2;" vertex="1" parent="1">
          <mxGeometry x="30" y="280" width="20" height="14.91" as="geometry" />
        </mxCell>
        <mxCell id="PWlyQdyDPkcx513YCzFa-4" value="" style="verticalLabelPosition=bottom;sketch=0;aspect=fixed;html=1;verticalAlign=top;strokeColor=none;align=center;outlineConnect=0;shape=mxgraph.citrix.laptop_2;" vertex="1" parent="1">
          <mxGeometry x="-4.440892098500626e-16" y="310" width="53.64" height="40" as="geometry" />
        </mxCell>
        <mxCell id="PWlyQdyDPkcx513YCzFa-5" value="" style="endArrow=classic;startArrow=classic;html=1;rounded=0;exitX=1;exitY=0.5;exitDx=0;exitDy=0;exitPerimeter=0;" edge="1" parent="1" source="PWlyQdyDPkcx513YCzFa-1" target="PWlyQdyDPkcx513YCzFa-2">
          <mxGeometry width="50" height="50" relative="1" as="geometry">
            <mxPoint x="150" y="470" as="sourcePoint" />
            <mxPoint x="201" y="471" as="targetPoint" />
          </mxGeometry>
        </mxCell>
        <mxCell id="PWlyQdyDPkcx513YCzFa-8" value="" style="endArrow=none;dashed=1;html=1;rounded=0;" edge="1" parent="1" source="0HfxqaFUXbfq7kOoOIhr-10">
          <mxGeometry width="50" height="50" relative="1" as="geometry">
            <mxPoint x="310" y="290" as="sourcePoint" />
            <mxPoint x="382" y="363" as="targetPoint" />
          </mxGeometry>
        </mxCell>
      </root>
    </mxGraphModel>
  </diagram>
</mxfile>
